<svg width="182" height="209" viewBox="0 0 182 209" fill="none" xmlns="http://www.w3.org/2000/svg">
<g opacity="0.6" filter="url(#filter0_i_40_2)">
<path d="M144.562 57.2691C156.14 76.3611 153.727 105.445 139.779 122.629C124.336 143.022 98.8748 151.869 73.6661 144.925C50.8008 138.931 32.1496 117.109 30.0587 93.5127C27.21 68.4921 38.8415 45.686 59.9975 33.1891C76.2998 23.1647 101.449 22.0252 118.413 31.539C128.722 36.5485 139.091 46.8255 144.514 57.2584L144.562 57.2691ZM92.1722 27.8356C92.3872 30.12 92.3872 33.3181 92.1722 35.925C92.2367 35.5111 92.6183 35.5111 92.871 35.3552C93.6665 35.6401 93.6665 36.6237 93.4407 37.2902H93.2795C97.3645 37.0054 101.304 38.0212 105.078 39.1607C109.012 39.666 112.441 44.396 116.311 41.8859C117.386 43.0899 119.268 41.9504 119.832 43.8209C121.321 44.1057 122.116 45.5946 123.132 46.546C123.003 47.9112 124.272 48.5455 124.718 49.556V49.3947C126.019 47.0459 128.077 45.0195 130.362 43.8155C122.343 36.1608 112.252 31.0319 101.342 29.0665C98.3857 28.4645 95.0962 28.6526 92.1776 27.8302L92.1722 27.8356ZM50.8438 43.9767L57.5626 50.416C65.9066 42.2137 77.0421 37.4677 88.7376 37.129C88.2915 34.2802 88.4527 31.0391 88.6086 28.1205C74.1498 28.9429 61.5616 34.3985 50.8438 43.9767ZM134.984 30.0179L139.359 34.3931C143.799 41.2409 150.018 48.0295 156.167 52.3456C154.866 49.6205 154.581 46.417 153.211 43.6919C150.486 36.0486 141.977 32.3399 134.973 30.0232L134.984 30.0179ZM45.6516 30.8779C40.2228 33.0279 34.3641 34.8124 30.3328 39.8864C27.1938 43.9714 26.2478 48.8949 24.6246 53.555L29.4083 49.47C36.7022 44.396 38.5996 36.1185 45.6408 30.8832L45.6516 30.8779ZM99.1866 32.7484L95.1016 34.5866C94.6555 34.8016 93.2311 34.0814 93.4515 35.2854C94.247 35.7906 95.0371 36.3604 96.0207 36.4894C98.59 35.3499 101.664 37.2204 103.814 34.8392C103.18 33.0924 100.896 33.0332 99.192 32.743L99.1866 32.7484ZM151.577 37.9836C157.634 41.9772 157.22 49.3356 159.37 55.3019C159.94 57.8066 161.467 60.0856 161.655 62.5957C158.419 53.1787 147.449 52.1682 143.487 43.2834L144.724 48.4864C147.798 58.5699 159.827 61.0101 164.385 70.1476C162.956 63.5525 165.46 56.6349 163.472 50.1365C161.821 44.5572 157.226 39.6337 151.577 37.9836ZM19.255 46.9867C14.6325 53.7754 18.395 63.1655 17.105 71.2172C18.7551 67.917 21.9586 64.778 24.7482 62.4345C31.1875 58.2796 36.9602 51.6522 37.1806 44.267C33.7513 53.0444 22.4638 54.1892 19.6688 63.5418H19.384C23.5388 55.7695 21.19 44.8367 29.1127 39.0855C24.9578 40.2572 21.4372 43.3317 19.2496 46.9867H19.255ZM92.0325 40.268C92.4786 43.1167 92.3173 46.546 92.1615 49.341C99.3908 49.47 106.244 51.6899 111.888 55.8985C111.552 55.6482 111.28 55.323 111.092 54.9488C110.905 54.5746 110.807 54.1617 110.807 53.7431H111.022C111.151 52.7219 109.593 52.2542 110.109 51.2384C111.474 51.3674 112.49 53.2379 113.248 54.2484C117.182 54.1839 114.898 58.8709 117.87 60.2684C118.569 60.6177 117.655 62.0421 118.73 61.9185C119.644 62.6495 120.794 63.4772 120.601 64.6436C120.95 66.7076 122.6 64.0094 123.519 65.3424C124.315 65.9766 122.949 66.3636 123.105 67.1161C123.611 67.3311 124.089 66.6109 124.471 67.2451C124.632 67.9439 124.121 68.2287 123.772 68.6104C123.422 69.8144 124.847 69.1156 125.261 69.6854C125.895 71.0506 126.4 73.1092 125.39 74.6304C126.819 76.1891 125.175 77.7694 124.884 79.2529C123.863 80.2365 123.68 82.4886 121.745 81.978C121.299 82.7735 122.03 83.698 121.584 84.3269L125.008 84.4881C123.073 81.763 125.578 79.1292 126.373 76.6944C126.787 76.5331 127.287 75.6731 127.642 76.5331L127.228 79.8334C128.088 81.1341 127.733 82.9724 128.023 84.4935L136.806 84.3322C136.172 78.5272 134.968 72.948 132.522 67.9062C131.888 68.1212 131.157 68.605 130.458 68.1911C129.475 66.8904 128.685 65.2725 127.319 64.1975C126.18 64.1975 125.384 63.2837 124.471 62.7086C122.471 62.7731 123.202 59.8599 121.267 60.2684C120.246 59.7631 119.493 59.2471 119.203 58.0485C119.139 56.6832 119.042 54.974 117.714 53.9635C116.983 53.5496 116.284 54.0925 115.779 54.5332C114.704 55.232 114.258 54.028 114.29 53.168C113.086 52.2542 114.355 51.233 113.721 50.158C112.001 48.7927 112.807 46.2235 110.485 45.084C106.712 43.278 102.745 42.1277 98.5523 41.2785C96.4292 40.9022 94.0803 40.8324 92.0217 40.2572L92.0325 40.268ZM118.166 40.268C117.72 40.397 117.881 41.128 118.037 41.4075C119.526 41.5365 119.526 44.095 121.272 42.9931L120.859 41.2194C120.412 40.1067 118.897 40.6819 118.166 40.268ZM59.4976 52.7541C61.782 54.3397 64.0018 56.8391 65.8723 58.9085C71.8923 53.039 80.0193 49.4592 88.7376 49.3302C88.5763 46.4815 88.5763 43.4016 88.7376 40.5475C77.7027 41.4075 67.7751 45.3957 59.4976 52.7541ZM132.544 45.9064L126.551 52.3456L125.567 52.4746C126.363 52.4746 126.137 53.3884 126.642 53.7431C129.147 55.5169 130.297 58.027 132.415 59.8975C133.21 61.8325 135.264 63.101 135.264 65.4767C138.22 71.2495 139.607 78.0005 139.924 84.6332C142.967 84.3084 146.028 84.1702 149.088 84.2194L148.803 83.9345C148.266 69.1264 142.208 56.522 132.533 45.9064H132.544ZM49.0701 46.8416L48.7852 45.9816C39.0565 56.5704 33.5632 69.9541 32.8322 84.5741L42.131 84.7031C41.7816 81.7469 42.5771 78.8981 42.9265 75.9795C44.926 67.3795 48.6347 59.2364 55.2352 52.8294L49.0701 46.8416ZM164.67 48.9916C168.89 55.146 166.476 63.7997 166.229 71.0022C166.39 74.496 166.96 77.9468 166.734 81.4297C166.229 80.0645 166.1 78.581 165.751 77.1459C164.031 69.3521 154.872 65.509 151.163 58.9784C151.733 61.1982 152.146 63.4181 152.937 65.5359C156.14 74.7647 165.718 80.9782 167.019 91.0026C167.879 81.4244 174.544 73.7811 172.093 63.3482C170.76 58.113 168.599 52.9745 164.676 48.9809L164.67 48.9916ZM15.9601 50.3192C12.6598 54.2591 10.44 58.9784 9.29509 64.0416C7.07522 74.539 13.3801 82.6284 14.7776 92.2066C16.6158 80.1881 29.2686 72.6094 29.9351 60.048C26.1726 66.8366 17.2178 70.7657 15.5677 78.7906C15.5677 80.0914 15.1538 81.3599 14.869 82.5961L14.5841 82.3112L15.0302 77.1082C16.589 67.8471 11.1602 58.2689 15.944 50.373L15.9601 50.3192ZM88.9365 52.351L88.6516 52.566C80.788 53.0121 74.2197 56.5005 68.1298 61.2197C70.4787 62.7409 72.3492 65.1542 74.5691 67.2129C78.3746 63.5579 83.4486 61.4079 88.7752 61.2197C88.5871 58.6182 88.4527 55.1299 88.9365 52.3402V52.351ZM92.1722 52.48C92.6183 55.146 92.5216 58.285 92.3335 61.08C97.6278 61.4939 103.277 63.6493 107.082 67.1C109.082 65.036 111.302 62.3162 113.522 61.08C107.276 56.135 100.267 53.0551 92.183 52.48H92.1722ZM57.1917 54.63V55.1997C49.9623 63.4772 45.9042 73.4371 45.1732 84.601C48.1295 84.6655 51.3867 84.472 54.1817 84.73L53.8968 84.3161C54.4666 75.4689 57.6593 67.4386 63.6256 61.0692C61.2176 59.1343 59.0031 56.9144 57.1863 54.63H57.1917ZM115.419 63.1225C112.732 66.197 109.361 69.465 106.819 72.4212C106.98 72.8351 107.453 73.2812 107.518 73.12C108.217 72.26 107.679 70.11 109.582 70.5507C111.452 71.185 113.102 70.9969 115.161 71.2495C116.301 71.8837 116.462 73.249 117.51 73.8187C117.956 74.324 117.349 74.8024 117.096 75.184C117.321 75.3858 117.513 75.6216 117.666 75.8827C118.236 75.3775 119.031 74.6787 120.106 74.969C121.181 75.0335 121.471 76.5546 122.455 76.7427C122.901 77.3125 122.17 77.8822 121.756 78.108C121.971 79.183 120.735 79.5377 121.186 80.5482C121.756 80.6772 122.326 80.387 122.552 79.9785C124.702 78.3929 122.998 76.3235 122.681 74.3992C121.821 72.6255 120.015 72.303 118.596 70.9754C118.66 70.4056 119.01 69.7714 119.456 69.4865C119.359 66.9495 116.79 65.2402 115.424 63.144L115.419 63.1225ZM65.8831 63.4074C63.9481 65.7885 62.0776 68.4169 60.6801 71.2011C58.4602 75.2861 57.8313 80.0484 56.9176 84.7139L60.6801 84.5849C60.0458 83.8539 60.1748 82.8111 60.1748 81.8597C61.0348 80.0537 61.3788 76.7857 64.1093 76.9416C65.4101 76.6567 64.0448 75.6409 65.093 75.1034C67.028 74.8185 67.5332 73.0071 69.178 72.1471C70.7367 71.9859 71.0485 69.7982 72.6018 69.6424C70.0003 67.8364 68.2266 65.5574 65.8831 63.3966V63.4074ZM92.3281 64.4824L92.5431 70.6367L94.892 71.4967C95.5907 70.2927 96.827 70.0079 97.6171 68.992C98.3481 68.6426 98.3481 69.5617 98.6921 69.852C99.1382 72.647 96.0046 73.9101 94.3491 75.055H95.0478C96.8216 73.2167 97.8428 77.3394 99.6703 75.4689C100.02 73.12 103.325 73.4049 104.046 71.0936C103.476 71.6634 103.186 71.0291 102.68 70.8786C102.842 70.0831 103.949 69.5779 104.454 69.0404C100.692 66.7291 96.7141 65.2026 92.3066 64.5039L92.3281 64.4824ZM88.6516 64.6705C83.8678 65.3693 79.3528 67.1107 75.9343 70.8249C77.0738 71.0399 78.2187 71.5236 79.0733 72.3137C79.3582 72.8835 78.5681 72.948 78.5036 73.2974C79.2346 74.3724 79.2991 73.0824 80.0623 72.8835C80.7611 73.5822 81.3631 74.0875 82.3467 73.5822C82.852 74.4422 83.6475 73.6467 84.2817 73.7112C84.4967 73.0125 85.4857 72.4427 85.0772 71.6472C85.4266 71.013 85.5825 69.9971 86.4425 69.9971C85.9372 72.6631 88.442 69.9971 89.1676 71.2656C88.4043 69.2661 88.9795 66.6055 88.6623 64.6705H88.6516ZM174.248 71.2011C175.834 80.43 170.255 87.3799 167.97 95.4316C166.702 98.5061 167.239 102.441 165.283 105.139C165.154 103.58 166.014 102.129 166.143 100.479C167.573 90.1695 158.629 84.0527 156.565 75.3237C156.457 77.5521 156.596 79.7855 156.979 81.9834C157.484 92.8624 164.622 101.71 162.558 113.062C164.622 110.396 166.143 107.633 168.615 105.037C176.828 96.4367 178.925 82.1392 174.195 71.1957L174.248 71.2011ZM7.24722 72.4051C4.29097 79.2529 4.45222 88.2936 6.67747 95.4316C8.61247 102.795 15.6215 107.928 19.2657 114.298C18.6315 111.632 18.7605 108.24 19.1367 105.515C21.5178 96.0014 25.2911 86.8101 24.716 76.2751C23.2862 83.8001 16.503 89.2128 15.7075 97.0226C15.2022 100.226 15.9923 103.365 16.4062 106.187C15.6752 104.757 14.9765 103.112 14.8475 101.269C13.7348 91.0564 5.45734 83.5099 7.23647 72.4051H7.24722ZM88.4635 75.9902L88.6247 76.1192C88.786 76.9792 89.4202 78.2692 88.6247 78.8444C87.6035 80.2096 85.131 79.9194 84.8192 81.763C82.1532 82.5585 83.1691 85.848 82.3145 87.9174C80.5945 88.3312 81.2395 86.2672 80.444 85.5685L80.0301 86.0737C77.3426 84.0742 77.907 88.3581 76.2676 88.7612C78.0736 89.1751 79.627 88.127 81.4706 88.0625C81.5996 88.2775 82.0403 88.4119 81.8845 88.7612H82.1693C82.5832 88.3474 82.6155 87.8475 82.5832 87.2724C82.7445 86.7026 83.4432 86.3586 83.9485 86.7026C83.7872 87.2724 84.1635 87.7239 84.6472 87.9711L83.6636 89.3364C83.1583 89.9061 83.7926 91.4595 82.4596 91.4004C82.1747 91.4649 81.9543 91.2391 82.0457 90.9542H81.7608L82.4596 92.2227C83.2551 92.1582 83.0938 90.7339 84.1097 90.5726C85.0235 90.3576 85.131 89.2719 85.0235 88.4226C86.2275 87.4014 87.6895 88.0087 89.0171 87.8529C89.3665 88.2022 90.1566 88.299 90.0007 88.9279C90.506 89.9491 89.6513 91.0779 89.0171 91.9379C89.302 92.5076 88.6032 92.9591 88.6032 93.588C87.5282 94.7275 86.3188 94.2223 84.8407 94.5716C86.6467 95.8401 88.614 96.6356 90.9951 96.4421C93.2795 96.6034 92.1991 93.717 93.8438 92.7871C94.8275 92.6581 95.6498 92.9161 96.7625 92.6259C97.2086 91.7659 97.2677 90.7554 97.4612 89.7771C96.4776 89.331 96.827 88.3474 96.7625 87.5572C96.1927 86.8585 96.2572 85.6222 95.1123 85.4932C94.8973 84.859 95.5585 84.5795 95.5262 84.0044C97.2462 83.3701 94.6125 82.3542 95.6875 81.3169C93.7525 80.9675 93.3063 77.893 90.9037 78.8766C90.334 78.0811 88.8397 77.7371 88.8397 76.5277C89.001 75.6677 90.936 76.0225 90.7102 76.1139C90.5812 75.9526 90.3608 75.829 90.4253 75.6086C89.6943 75.5441 88.8397 75.6086 88.3613 75.9849L88.4635 75.9902ZM64.1362 83.354C62.04 84.0527 64.1362 86.02 64.0072 87.3476C63.7922 88.4226 62.7065 87.5626 62.0722 88.0464C62.3571 89.8201 60.8682 90.1695 59.632 90.4866C59.2181 91.6906 60.5457 92.2604 59.9168 93.4053C61.438 94.964 62.642 96.8291 62.3571 98.9845C63.4321 100.543 63.1526 102.854 63.4321 104.854C63.9024 105.345 64.2664 105.928 64.5013 106.566C64.7362 107.204 64.837 107.884 64.7973 108.563C64.8618 109.294 64.0663 109.546 63.5933 109.831C63.0236 110.53 64.0072 110.181 64.0072 110.745L71.6505 102.817C68.8292 99.5491 66.9065 95.6037 66.0712 91.3681L65.0876 90.7984C64.9263 91.8734 64.9586 93.4859 64.0126 93.8084C63.5073 93.3623 62.4915 93.1096 62.4915 92.1582C62.7763 91.524 63.287 91.9433 63.76 91.8734C63.6955 91.3681 63.8245 90.8521 63.889 90.3845C64.0502 89.7502 62.9752 89.3095 63.76 88.7344C64.4587 88.6699 64.7436 89.4654 65.2488 89.8094L66.6141 89.1106C66.2002 87.8099 66.9635 85.7512 66.4851 84.3269C66.297 83.1874 65.0553 83.4131 64.1362 83.3433V83.354ZM119.257 87.3422L120.778 89.116C120.713 91.1155 123.444 91.8035 123.627 93.7761C124.196 91.9056 124.132 89.7825 124.702 87.9066C122.955 87.7185 120.708 88.2829 119.246 87.3369L119.257 87.3422ZM139.65 87.439L139.934 88.0088C139.424 99.642 134.753 110.705 126.771 119.184C129.063 121.275 131.264 123.465 133.366 125.747C140.891 117.023 146.148 107.224 147.954 96.0928C148.588 93.244 148.4 90.1641 149.222 87.439C146.427 88.2345 143.133 87.7239 140.058 87.8851L139.65 87.439ZM127.916 87.6271C128.265 88.7666 127.567 89.847 127.631 91.051C126.427 93.0505 129.19 93.5557 128.427 95.4262C127.921 95.8401 127.405 95.7756 126.776 95.5552C125.347 101.134 122.557 106.273 118.563 110.713H118.15C119.171 111.347 119.923 112.777 121.068 113.062V112.266C121.283 112.105 121.418 111.696 121.767 111.852C123.987 112.551 124.148 115.625 124.336 117.055C130.141 110.965 133.753 103.704 135.57 95.8401C136.204 93.1526 135.855 90.0351 136.935 87.7507C133.952 87.912 130.722 88.0732 127.927 87.6217L127.916 87.6271ZM56.9122 87.7239C57.5465 89.7879 58.213 92.0078 57.7077 94.2814C57.7077 93.2601 59.9276 92.2174 58.1538 91.3251C58.8526 90.3039 58.3151 88.1216 59.6427 88.0249C58.5946 88.2399 57.8045 88.2399 56.9176 87.7024L56.9122 87.7239ZM32.9666 88.0088C33.6008 102.532 38.9597 115.249 48.409 126.037C50.5052 123.817 52.8487 121.307 55.1277 119.479C53.9882 118.748 53.2572 117.415 52.1177 116.469C50.688 116.185 49.7366 114.819 49.3926 113.621C49.4571 113.782 49.2313 113.905 49.1077 114.035C47.807 114.669 47.3877 113.051 46.5385 112.546C45.743 112.132 46.3772 110.326 44.9797 110.987C44.1842 109.686 42.6953 109.783 42.131 108.262L41.5451 109.192C40.5238 109.127 39.7713 107.891 39.1962 107.257C37.1 107.891 37.9277 104.972 36.756 104.021C36.3098 102.183 36.885 100.5 37.831 99.0759C38.4652 98.5061 39.6692 98.9469 39.895 99.3607C40.97 99.7746 40.3088 98.5007 40.8786 98.2857C42.3997 96.985 43.163 98.791 44.0176 99.7746C42.7491 96.1196 41.9536 91.8465 42.1471 87.912C39.1908 88.2614 35.9013 88.1646 32.9558 87.9765L32.9666 88.0088ZM44.9851 87.912L45.27 88.3259C45.5548 92.4109 46.6997 96.4153 47.0437 100.344C47.549 99.995 47.205 99.0759 47.9037 99.0759C48.1187 97.1409 48.409 94.921 49.6775 93.2064C51.4835 93.1419 51.548 90.7016 53.483 90.8575C53.9291 91.2069 54.558 91.653 54.7515 92.2227C53.7678 91.0832 53.7302 89.2665 54.1817 87.8797C51.1304 88.2865 48.0392 88.2973 44.9851 87.912ZM69.7853 91.567L70.2906 92.427C70.9893 95.2757 72.6717 97.6622 74.0961 100.221L76.7836 97.4956C76.7191 97.1462 76.9126 96.7646 76.6546 96.512C76.1493 95.8132 76.4933 94.577 75.7946 94.1631C75.5796 94.7974 76.2998 95.1468 75.9558 95.652C75.0958 95.3026 74.1821 94.921 73.736 93.8783C73.8972 92.5775 72.9405 93.5289 72.2471 92.8946C72.2148 91.4971 70.4411 92.4109 69.8391 91.5616L69.7853 91.567ZM79.3636 93.9159C79.2023 94.7114 78.5681 95.3456 78.0951 95.9799C78.8906 95.6305 79.3636 94.4211 80.2451 94.491L79.3636 93.9159ZM158.016 94.9909C152.587 106.655 156.527 122.172 149.927 133.304L151.002 132.39C163.816 125.381 179.258 113.578 176.721 96.3615C176.506 98.7104 175.737 100.801 174.657 102.801C169.647 110.594 161.085 116.975 156.919 125.096C156.79 125.381 156.414 125.542 156.221 125.258L157.081 124.183C163.138 115.459 157.715 104.741 158.064 95.007L158.016 94.9909ZM103.691 95.9423C102.422 97.716 104.895 97.5924 105.056 99.0812C105.341 99.0812 105.69 99.2103 105.852 98.9522C105.69 98.318 105.723 97.6515 105.153 97.1785C104.201 97.2107 104.201 95.9423 103.702 95.9423H103.691ZM23.7646 96.1304C24.4633 99.9036 23.2593 103.204 22.6896 106.628C20.7546 113.185 21.706 120.871 25.5383 126.225C24.2698 125.591 23.4743 124.129 22.6896 122.801C17.9596 113.728 6.03784 108.595 5.02197 97.716C4.95747 101.65 4.95747 105.805 6.16147 109.353C9.46172 121.533 22.9046 127.811 31.9776 133.97C25.5383 122.871 28.9676 107.74 23.7646 96.1304ZM118.848 96.6356C117.198 95.3994 117.548 97.7751 116.123 97.6192C115.618 97.4902 115.489 96.8883 115.424 96.3508C115.295 97.6515 114.285 98.6351 113.554 99.651C110.866 98.92 111.619 102.607 108.985 101.801C109.335 102.822 110.474 101.64 111.049 101.962C111.495 101.747 111.399 101.264 111.619 100.979C111.904 99.9036 113.205 99.4897 114.306 99.9036C114.876 100.817 115.037 101.968 115.005 103.043C114.371 103.489 114.371 104.247 114.435 104.978C113.64 106.278 113.989 109.063 111.587 108.783C109.082 107.869 106.351 107.197 103.594 107.133V107.703C105.432 108.401 107.464 108.402 108.953 109.767C110.539 109.606 112.538 109.982 113.737 109.068C113.898 107.928 114.371 106.918 115.102 106.058C116.123 106.187 115.897 107.547 116.37 108.208C119.38 104.402 122.014 100.753 123.035 96.0605C121.547 95.996 120.466 96.856 118.913 96.6302L118.848 96.6356ZM82.2177 96.5066L76.7352 102.661C79.8742 105.042 83.5238 106.945 87.582 107.579C87.5175 106.504 87.5175 105.429 88.0872 104.569C88.657 104.22 89.517 104.73 90.0222 104.155C89.9577 103.65 89.6083 103.65 89.3235 103.172C88.9741 102.376 89.3235 101.651 89.4525 101.108C89.6675 100.694 89.0063 99.8069 89.7373 99.522C87.9636 100.382 86.378 99.1726 84.8192 98.662C83.9592 97.9955 82.4381 97.8396 82.2177 96.512V96.5066ZM99.8853 102.661C100.584 101.747 102.035 101.93 102.326 100.887C101.057 100.672 99.6381 101.586 99.8853 102.661ZM103.121 104.026C102.487 104.376 101.982 104.376 101.632 105.101C100.901 106.085 99.9821 105.037 99.2833 104.687C99.4983 104.972 100.014 105.671 99.4123 106.053C98.6813 106.848 97.9826 105.703 97.2623 105.483C96.8485 107.988 95.9616 104.784 94.5748 105.354C94.0051 103.924 93.0161 105.639 92.1346 105.483C91.4358 106.053 91.4036 107.703 90.0706 107.547C89.7857 108.342 88.7053 108.052 88.5817 108.622C89.216 109.353 90.0706 109.036 90.7317 108.907C91.8067 107.923 93.172 108.557 94.4942 108.401C94.3652 110.465 96.7786 108.907 97.5042 110.175C98.3642 110.111 98.3642 109.261 98.7082 108.617C100.482 108.332 102.293 107.251 103.277 105.891C103.53 105.408 103.847 104.306 103.116 104.021L103.121 104.026ZM74.0047 105.01C72.1987 107.23 70.0111 109.353 67.8503 111.164H68.2642C73.2737 115.507 79.6162 118.528 85.5502 119.474C83.4002 119.189 82.5402 117.066 81.5566 115.48C80.9868 114.18 82.9863 113.895 82.6316 112.524C83.3626 111.32 84.5021 110.654 85.9318 110.46C85.2331 110.589 84.5666 110.675 83.8678 110.874C80.2505 109.67 76.6116 108.079 74.0047 105.004V105.01ZM152.533 112.239L147.75 118.517C141.31 127.397 142.041 139.544 133.097 147.123C137.72 145.634 142.805 145 147.556 143.984C158.338 141.259 169.664 130.632 171.217 119.598C169.282 124.22 165.224 127.623 161.133 130.315C154.06 133.616 146.89 137.389 140.902 142.624H140.203L140.617 142.054C150.959 135.228 148.164 122.006 152.55 112.245L152.533 112.239ZM116 112.938V113.067C111.716 116.077 118.064 116.206 118.15 118.84C117.515 120.108 115.231 121.345 116.661 122.833C117.107 123.339 116.446 123.747 116.247 124.199L122.116 119.254C121.385 119.759 120.466 119.415 120.052 118.748C120.181 116.061 117.069 115.007 115.994 112.943L116 112.938ZM29.2578 113.223L30.908 117.442C32.4936 126.892 33.2568 137.33 41.8515 143.323L41.7225 143.452C38.9275 142.248 36.8043 139.931 34.305 138.378C26.2156 133.143 15.0517 130.853 10.4937 120.775C11.7622 128.138 16.7717 134.75 22.8025 139.232C30.0318 145.607 40.1207 145.102 48.968 147.671C45.7322 145.167 43.894 142.312 42.4105 138.792C39.207 129.816 36.3528 120.517 29.2793 113.228L29.2578 113.223ZM68.5222 116.168C68.5222 117.152 69.823 117.19 69.3177 118.388C67.3827 119.592 65.0338 118.738 63.1633 120.162C61.4433 121.076 60.0243 119.087 59.0783 119.178C67.3881 126.343 77.1545 131.132 88.3828 131.675L89.0816 132.089C88.6355 129.364 88.7967 126.16 88.9526 123.306C81.3093 123.753 74.3917 120.581 68.5222 116.168ZM124.497 121.242C123.204 123.001 121.577 124.488 119.708 125.618C113.78 127.682 113.258 134.271 107.4 136.464C105.115 137.378 103.814 134.4 101.756 133.96C98.6813 134.465 95.4778 135.325 92.3388 134.82V144.398L92.7527 144.113C107.469 143.479 120.724 137.674 131.066 127.972C128.717 125.752 126.212 123.468 124.508 121.253L124.497 121.242ZM57.2025 121.812L50.86 128.37C61.6745 138.077 74.6175 143.312 89.173 144.226L88.7591 143.527C88.8881 140.678 88.5441 137.658 89.044 134.927L88.915 135.088C76.7997 134.739 65.7326 130.235 57.2025 121.801V121.812ZM91.8981 123.876L92.4678 124.86L92.3388 132.089C94.4351 131.294 97.3483 131.358 99.2833 131.014C98.1438 129.875 96.4346 129.993 95.9831 128.289C95.1876 127.149 96.3325 125.94 96.268 124.989C94.9027 124.322 92.8871 125.118 91.8981 123.876ZM140.338 130.692C133.78 134.976 128.126 142.269 122.17 146.924C118.87 149.429 114.941 150.16 111.071 151.299C119.633 151.934 126.739 155.96 135.688 155.384C145.266 154.971 154.049 149.391 158.553 140.893C151.958 148.757 141.332 148.311 131.598 149.203C128.362 149.617 125.159 150.568 121.891 150.568C122.02 150.439 122.106 150.219 122.304 150.284C132.931 149.424 135.941 137.851 140.348 130.686L140.338 130.692ZM41.4215 131.358C45.7967 136.497 45.9902 143.291 52.0801 147.499C54.429 149.563 57.5626 149.94 60.1695 151.02C57.2508 151.305 54.5902 150.106 51.677 149.945C41.8783 148.741 30.65 150.009 23.4582 142.017C26.694 147.725 32.4667 152.675 38.4921 154.605C49.8763 158.948 60.2178 152.541 71.0968 151.595C58.5086 151.025 51.6555 137.228 41.443 131.364L41.4215 131.358ZM123.53 158.029C113.801 153.589 102.503 148.612 91.0865 152.826C85.346 150.955 77.7995 150.955 72.059 152.826C62.0346 157.395 48.3391 164.275 37.745 156.631C39.7445 159.013 41.8998 160.152 44.1842 161.834C51.032 166.274 60.9005 165.828 67.9417 162.248C74.3917 159.523 79.3905 151.369 87.668 153.938C80.659 157.459 74.2197 161.679 68.4147 167.736L71.9353 170.746C77.0201 164.017 84.0076 158.373 91.3713 155.073C98.5362 158.566 105.104 164.522 110.528 170.515L114.048 167.505C108.34 161.985 101.74 157.508 94.892 153.992C96.6657 153.546 98.8265 153.643 100.632 153.831C108.05 157.067 113.731 163.56 122.132 164.549C131.012 165.979 138.94 162.399 144.428 155.895L140.209 158.115C135.264 160.303 128.572 159.727 123.525 158.083L123.53 158.029Z" fill="#372808"/>
</g>
<g filter="url(#filter1_i_40_2)">
<path d="M157.557 173.271L156.569 155.59L158.658 153.917L167.617 165.108C168.133 164.671 168.536 164.288 168.826 163.959C169.105 163.616 169.281 163.295 169.354 162.996C169.415 162.682 169.377 162.364 169.239 162.042C169.101 161.719 168.862 161.345 168.522 160.92L169.335 160.269L173.613 165.611L172.799 166.263C172.482 165.867 172.187 165.574 171.915 165.383C171.642 165.193 171.357 165.108 171.061 165.129C170.753 165.135 170.413 165.251 170.041 165.476C169.657 165.688 169.195 165.997 168.656 166.405L169.202 167.087C169.612 167.6 169.992 168.029 170.341 168.375C170.705 168.709 171.066 168.949 171.423 169.096C171.77 169.228 172.127 169.254 172.497 169.175C172.881 169.084 173.291 168.875 173.728 168.55L174.432 169.429L166.891 175.466L166.187 174.587C166.688 174.162 167.04 173.76 167.242 173.381C167.447 172.977 167.531 172.585 167.493 172.207C167.469 171.817 167.346 171.423 167.123 171.024C166.9 170.625 166.6 170.191 166.225 169.722L165.626 168.975L158.613 174.59L157.557 173.271ZM158.814 160.467L158.727 160.537L159.373 171.709L164.517 167.59L158.814 160.467Z" fill="#372808"/>
<path d="M145.458 184.763L150.559 182.119C150.975 181.903 151.325 181.68 151.607 181.449C151.88 181.202 152.078 180.909 152.199 180.571C152.336 180.225 152.41 179.817 152.42 179.346C152.422 178.859 152.363 178.276 152.244 177.598L153.344 177.028L155.363 183.372L142.261 190.163L141.665 189.013C142.768 186.285 143.632 183.975 144.26 182.085C144.879 180.178 145.296 178.556 145.512 177.217C145.735 175.854 145.769 174.694 145.612 173.739C145.464 172.759 145.16 171.827 144.702 170.944C144.072 169.727 143.3 168.911 142.387 168.496C141.474 168.081 140.542 168.12 139.592 168.612C139.142 168.845 138.76 169.149 138.446 169.523C138.141 169.872 137.92 170.261 137.783 170.692C137.663 171.113 137.624 171.567 137.664 172.054C137.722 172.532 137.871 173.004 138.113 173.471C138.545 174.304 139.095 174.854 139.762 175.122C140.446 175.381 141.155 175.32 141.889 174.94C142.056 175.466 142.021 175.971 141.785 176.453C141.565 176.926 141.188 177.301 140.655 177.578C140.138 177.846 139.607 178.004 139.062 178.054C138.533 178.096 138.016 178.036 137.51 177.875C137.02 177.706 136.567 177.444 136.151 177.089C135.725 176.717 135.37 176.257 135.085 175.706C134.696 174.956 134.509 174.186 134.522 173.397C134.544 172.582 134.742 171.781 135.117 170.995C135.492 170.208 136.031 169.474 136.735 168.792C137.447 168.085 138.295 167.476 139.278 166.966C140.262 166.457 141.231 166.123 142.186 165.967C143.141 165.81 144.036 165.822 144.87 166.003C145.712 166.159 146.464 166.488 147.126 166.991C147.797 167.468 148.339 168.107 148.754 168.907C149.272 169.907 149.544 171.003 149.57 172.195C149.613 173.379 149.459 174.632 149.108 175.956C148.775 177.271 148.279 178.659 147.62 180.122C146.978 181.575 146.227 183.085 145.368 184.651L145.458 184.763Z" fill="#372808"/>
<path d="M124.735 178.988C125.204 178.272 125.521 177.607 125.688 176.994C125.866 176.357 125.879 175.816 125.726 175.372C125.668 175.432 125.579 175.492 125.461 175.553C125.354 175.589 125.257 175.623 125.168 175.653C124.759 175.794 124.358 175.753 123.964 175.531C123.582 175.285 123.309 174.922 123.144 174.443C122.943 173.857 122.97 173.302 123.227 172.777C123.483 172.252 123.904 171.889 124.49 171.687C125.112 171.474 125.679 171.537 126.193 171.877C126.701 172.199 127.086 172.741 127.348 173.505C127.659 174.41 127.692 175.402 127.447 176.479C127.201 177.556 126.683 178.677 125.892 179.842L124.735 178.988Z" fill="#372808"/>
<path d="M116.197 198.35L101.361 182.495L101.249 182.511L102.94 194.503C103.072 195.432 103.203 196.163 103.335 196.694C103.485 197.223 103.684 197.621 103.93 197.89C104.195 198.156 104.52 198.309 104.905 198.35C105.309 198.387 105.819 198.372 106.435 198.305L106.592 199.42L98.3095 200.588L98.1522 199.473C98.8374 199.357 99.378 199.224 99.7739 199.073C100.186 198.901 100.484 198.66 100.667 198.35C100.87 198.037 100.973 197.624 100.976 197.112C100.977 196.581 100.916 195.878 100.793 195.005L99.2116 183.794C99.1015 183.013 98.9738 182.377 98.8287 181.885C98.6809 181.375 98.4838 180.986 98.2373 180.717C97.9908 180.449 97.6645 180.286 97.2584 180.23C96.8682 180.152 96.3544 180.139 95.717 180.191L95.5597 179.076L103.34 177.978L116.852 192.512L116.964 192.496L115.442 181.704C115.313 180.793 115.174 180.073 115.023 179.544C114.889 178.994 114.689 178.587 114.424 178.321C114.178 178.052 113.853 177.899 113.449 177.861C113.064 177.82 112.564 177.834 111.947 177.902L111.79 176.786L120.073 175.618L120.23 176.734C119.545 176.849 118.996 176.993 118.584 177.165C118.188 177.316 117.889 177.547 117.687 177.86C117.503 178.171 117.411 178.591 117.41 179.122C117.409 179.653 117.469 180.347 117.589 181.202L119.934 197.823L116.197 198.35Z" fill="#372808"/>
<path d="M87.61 191.506C87.3986 193.088 87.0403 194.423 86.5351 195.511C86.0509 196.583 85.3974 197.433 84.5746 198.062C83.7519 198.691 82.7412 199.096 81.5426 199.277C80.3626 199.46 78.9724 199.445 77.3719 199.231C74.3757 198.831 72.263 197.914 71.0338 196.48C69.8257 195.031 69.4057 192.929 69.7737 190.175L70.7957 182.526C70.8926 181.8 70.9641 181.194 71.0102 180.708C71.0587 180.203 71.0867 179.78 71.0943 179.44C71.1018 179.1 71.082 178.823 71.0349 178.608C71.0089 178.378 70.9594 178.182 70.8862 178.02C70.7535 177.737 70.5352 177.528 70.2313 177.393C69.9273 177.258 69.4497 177.146 68.7983 177.059L68.9475 175.943L78.9691 177.282L78.8199 178.398C78.0383 178.294 77.4552 178.263 77.0705 178.307C76.6884 178.331 76.3788 178.451 76.1417 178.666C75.9916 178.797 75.8551 178.968 75.7322 179.179C75.6304 179.374 75.5279 179.644 75.4249 179.99C75.3429 180.32 75.259 180.735 75.1733 181.235C75.0875 181.735 74.9962 182.348 74.8992 183.074L73.922 190.388C73.6385 192.51 73.8751 194.142 74.6316 195.285C75.4092 196.411 76.7379 197.1 78.6175 197.352C82.4512 197.864 84.6528 195.989 85.2222 191.727L86.0837 185.279C86.1882 184.497 86.2591 183.825 86.2964 183.261C86.3524 182.701 86.3693 182.22 86.3471 181.819C86.3435 181.421 86.3032 181.084 86.2264 180.809C86.1681 180.536 86.0758 180.305 85.9493 180.118C85.7235 179.823 85.4134 179.592 85.0189 179.425C84.6269 179.24 84.068 179.099 83.3422 179.003L83.4914 177.886L92.5359 179.094L92.3867 180.211C91.6982 180.119 91.1603 180.104 90.7732 180.166C90.3886 180.209 90.0765 180.347 89.837 180.581C89.6657 180.728 89.5149 180.935 89.3845 181.202C89.2567 181.45 89.1375 181.775 89.0269 182.177C88.9189 182.561 88.809 183.029 88.6972 183.582C88.604 184.138 88.5051 184.807 88.4007 185.588L87.61 191.506Z" fill="#372808"/>
<path d="M44.8311 183.996L57.6719 171.871L65.1235 175.35L64.647 176.37C64.0856 176.108 63.5984 175.953 63.1855 175.906C62.7976 175.849 62.4426 175.921 62.1204 176.123C61.7983 176.325 61.484 176.665 61.1777 177.144C60.8963 177.614 60.5769 178.231 60.2195 178.997L55.5968 188.898C55.1997 189.749 54.9199 190.437 54.7577 190.962C54.5954 191.487 54.5528 191.933 54.6298 192.301C54.7069 192.668 54.9127 192.982 55.2473 193.242C55.5989 193.51 56.0854 193.799 56.707 194.11L56.2304 195.131L46.6352 190.651L47.1117 189.63C47.7492 189.907 48.2749 190.09 48.6889 190.18C49.1278 190.26 49.5089 190.221 49.8322 190.061C50.1725 189.909 50.4839 189.619 50.7664 189.192C51.0569 188.747 51.3888 188.125 51.7621 187.325L57.3379 175.382L57.2103 175.323L42.4585 189.012L40.5701 188.13L41.3629 167.924L41.2608 167.877L35.7684 179.641C35.3713 180.492 35.0916 181.179 34.9293 181.705C34.767 182.23 34.7244 182.676 34.8014 183.044C34.8785 183.411 35.0843 183.725 35.4189 183.985C35.7705 184.252 36.257 184.542 36.8786 184.852L36.402 185.873L28.5421 182.204L29.0187 181.183C29.6561 181.46 30.1903 181.647 30.6213 181.745C31.0602 181.825 31.4414 181.786 31.7647 181.626C32.105 181.474 32.4164 181.184 32.6989 180.756C32.9893 180.312 33.3212 179.69 33.6945 178.89L38.484 168.632C38.8176 167.917 39.0615 167.306 39.2159 166.798C39.3702 166.289 39.4174 165.856 39.3573 165.496C39.3052 165.119 39.1243 164.797 38.8147 164.528C38.5301 164.25 38.0985 163.976 37.5201 163.706L37.9967 162.685L45.729 166.295L44.729 183.949L44.8311 183.996Z" fill="#372808"/>
<path d="M19.3787 158.939C20.2795 159.734 21.0292 160.346 21.6278 160.774C22.2264 161.202 22.7481 161.463 23.1928 161.555C23.664 161.645 24.112 161.577 24.5369 161.351C24.9618 161.125 25.4642 160.755 26.0441 160.24L26.8253 160.93L21.3637 167.116L20.5826 166.426C20.9952 165.788 21.2803 165.238 21.4377 164.776C21.5952 164.314 21.5937 163.862 21.4332 163.42C21.2851 162.964 20.9623 162.478 20.4647 161.964C19.9936 161.448 19.3148 160.798 18.428 160.015L14.5882 164.364C14.1906 164.815 13.9113 165.244 13.7505 165.654C13.6038 166.075 13.5842 166.509 13.6918 166.954C13.8117 167.386 14.0666 167.849 14.4565 168.343C14.8589 168.824 15.3978 169.362 16.0734 169.959C16.8757 170.667 17.601 171.207 18.2493 171.579C18.9117 171.964 19.5502 172.177 20.1646 172.218C20.7791 172.26 21.404 172.148 22.0393 171.882C22.687 171.602 23.4051 171.172 24.1937 170.591L25.0382 171.337L20.4318 175.873L6.11778 163.235L6.86338 162.391C7.34027 162.787 7.75757 163.08 8.11527 163.27C8.47298 163.461 8.8038 163.54 9.10774 163.508C9.41169 163.476 9.7285 163.33 10.0582 163.07C10.3879 162.81 10.7702 162.434 11.2051 161.941L19.8168 152.187C20.2517 151.695 20.5715 151.276 20.7762 150.93C21.0074 150.583 21.1271 150.263 21.1355 149.97C21.1563 149.663 21.0578 149.363 20.8401 149.071C20.6489 148.777 20.3546 148.429 19.9572 148.028L20.7028 147.184L34.0457 158.964L30.5401 163.233L29.6322 162.431C30.0697 161.765 30.3647 161.162 30.5173 160.62C30.6822 160.065 30.7023 159.531 30.5774 159.02C30.4649 158.495 30.1856 157.961 29.7394 157.416C29.3197 156.87 28.7368 156.268 27.9909 155.61L25.6052 153.503C25.2393 153.18 24.9706 153.031 24.7991 153.055C24.6401 153.064 24.4115 153.238 24.1133 153.576L19.3787 158.939Z" fill="#372808"/>
</g>
<g filter="url(#filter2_i_40_2)">
<path d="M130.107 177.712L129.371 177.648L128.664 177.835C128.239 172.992 132.369 169.687 133.075 165.215C130.048 158.916 126.09 153.683 120.111 149.909C111.004 144.18 103.638 136.944 102.356 125.526C95.6026 124.034 89.7455 122.084 84.1238 119.451C75.8248 117.228 74.1342 113.388 79.3604 107.493C84.3656 101.847 89.8166 96.5739 94.6986 90.8005C95.983 89.2874 97.5347 88.04 99.7933 88.6609C105.553 89.1049 108.78 93.0775 111.417 97.4724C113.955 101.709 117.066 104.316 122.278 103.89C125.174 103.657 127.813 104.843 130.31 106.218C139.152 111.072 144.426 122.667 135.296 132.479C129.681 138.514 129.601 144.175 132.574 150.841C133.708 153.398 134.986 155.919 136.401 158.329C139.654 163.923 139.588 165.235 135.619 170.279C133.716 172.702 131.949 175.22 130.119 177.702L130.107 177.712Z" fill="url(#paint0_radial_40_2)"/>
<path d="M99.794 88.65C92.2939 96.0546 86.4014 104.988 77.6161 111.492C78.418 115.464 80.2463 118.246 84.1246 119.44C81.4704 121.319 77.9886 121.16 76.4642 119.135C71.6992 112.811 67.9439 116.975 63.8461 119.554L63.8352 119.553C63.0662 119.312 62.2959 119.094 60.8414 118.672C62.1211 116.865 62.0119 114.444 64.9835 114.4C66.5614 114.383 68.3711 114.869 69.1247 112.759C70.9529 111.245 72.7811 109.731 74.6093 108.217C76.7193 101.488 83.845 99.0212 87.2008 93.3111C88.7223 90.7134 91.8645 89.2324 92.7739 85.381C84.7202 79.8769 72.618 79.6509 68.3938 68.5187C70.9111 65.8158 71.8905 61.6966 75.8533 60.3177C84.0016 59.9003 88.529 68.625 97.8482 68.8303C99.3022 59.9209 100.994 51.2211 97.7218 42.4173C94.9969 35.0482 92.3364 34.045 84.5239 36.1678C80.3467 37.3058 76.0385 37.8924 73.8905 32.5689C73.9505 31.5392 74.0104 30.5095 74.0703 29.4799C73.6722 29.0325 73.5764 28.6246 73.7712 28.2661C73.9655 27.9185 74.1388 27.7438 74.3013 27.7532C76.1976 26.9392 76.7277 24.3708 79.4073 24.2984C81.5858 24.2403 81.1694 22.0519 81.1742 20.4752C80.7971 18.9198 81.6078 17.5097 81.6949 16.0139C83.6925 14.2053 86.8536 14.4545 87.7041 10.3061C88.4002 6.94257 92.0753 3.2196 97.048 5.9778C97.7897 10.6104 92.0655 11.2343 91.9914 15.1234C89.9753 15.9413 90.9116 16.4852 92.166 16.9823C92.5336 18.7003 91.6267 20.268 91.5627 21.9282C90.5324 26.1749 95.5898 24.6749 96.459 27.1181C98.9384 30.1118 101.705 32.8394 104.23 35.8031C105.728 37.5217 106.887 39.4706 108.182 41.3296C113.222 48.5325 113.219 56.0002 108.172 63.7325C107.449 67.1815 108.078 70.9592 105.608 73.9693C103.462 77.3898 101.358 81.0303 102.229 85.1266C102.801 87.8136 100.014 87.1184 99.773 88.6378L99.794 88.65Z" fill="#282321"/>
<path d="M68.3932 68.5295C76.3785 75.7698 85.0744 81.6376 97.4937 82.3932C91.7473 93.6737 83.4995 101.22 74.5978 108.227C65.4958 100.367 54.3785 103.962 44.0897 103.037C41.2984 102.787 38.9158 104.856 36.9624 107.026C35.311 108.866 33.474 110.532 30.9245 111.732C32.5945 108.077 34.2538 104.422 35.9245 100.756C37.8498 96.4525 42.6306 97.0897 45.8413 94.9928C51.3333 93.1265 56.2572 90.1831 61.0439 86.9816C63.4338 86.4681 63.7977 84.1402 64.8984 82.6056C63.2233 83.1715 62.5477 87.6781 59.5694 84.1007C58.0793 78.685 59.714 74.517 64.5162 71.61C65.8047 70.5866 67.1047 69.553 68.3932 68.5295Z" fill="url(#paint1_radial_40_2)"/>
<path d="M75.8682 146.007C74.1127 144.404 70.8061 144.037 71.4249 140.506C76.9372 141.654 81.3089 145.769 87.1361 146.739C92.3395 141.049 88.3935 133.359 91.4692 127.415C96.675 127.29 100.237 130.3 102.156 136.444C97.0977 140.206 96.0101 146.559 93.413 152.314C86.8445 151.561 81.5062 148.358 75.8676 146.018L75.8682 146.007Z" fill="url(#paint2_radial_40_2)"/>
<path d="M73.9007 32.5805C80.1309 36.717 81.7005 36.6561 86.1342 31.6722C88.7527 28.7251 91.0479 29.8375 93.2826 31.9905C97.454 35.9962 100.363 40.755 101.321 46.5313C102.722 54.9761 101.154 63.2371 100.624 71.9611C89.7107 72.2393 83.4537 64.8278 75.8533 60.3179C80.1418 54.6513 86.4867 50.4638 88.9975 42.2685C80.0574 43.7709 71.6254 45.3247 64.4347 39.3813C66.286 33.9209 69.6904 32.6074 73.9014 32.5697L73.9007 32.5805Z" fill="url(#paint3_radial_40_2)"/>
<path d="M46.2817 96.3998C45.6865 95.7887 45.1021 95.1783 44.5069 94.5673C43.0702 92.9067 40.5338 92.5742 39.5066 90.4154C39.3232 89.6434 39.4197 88.9204 39.7865 88.224C41.3326 86.3238 43.4424 85.3916 45.7104 84.7297C46.8878 84.4938 48.0488 84.5396 49.2068 84.8245C52.6881 86.2996 55.0608 85.8939 55.2882 81.4265C55.3927 79.2575 54.9782 77.0365 55.765 74.9181C57.0082 72.8044 59.8838 73.2873 61.3063 71.456C62.3794 71.5184 63.4429 71.5586 64.5165 71.6102C63.0509 76.0491 59.446 79.8741 60.6006 85.0745C61.7506 85.8701 62.9675 86.637 61.9874 88.3417C57.4071 92.2948 52.2785 95.2045 46.2817 96.3998Z" fill="#282321"/>
<path d="M104.709 29.8169C103.437 29.8081 101.768 29.1455 102.435 31.7074C102.782 33.0218 102.578 34.4781 102.628 35.8622C99.8868 33.4406 95.8641 31.9231 96.4911 27.1308C99.1949 28.1365 102.786 26.4206 104.72 29.8067L104.709 29.8169Z" fill="url(#paint4_radial_40_2)"/>
<path d="M164.395 121.894C163.536 124.324 164.914 127.547 161.895 129.535C159.4 119.526 158.543 118.922 150.714 121.326C149.021 121.26 147.277 121.343 145.941 120.004C153.273 111.372 160.549 112.121 164.384 121.893L164.395 121.894Z" fill="url(#paint5_radial_40_2)"/>
<path d="M48.6388 85.9876C44.3687 80.1272 40.0986 74.2669 35.8183 68.3952C30.3109 67.9114 25.8549 70.8494 20.9565 71.6736C19.3857 71.941 17.7275 73.1496 17.0189 70.5635C22.589 68.1036 28.189 65.689 33.7412 63.1628C36.6234 61.8515 39.1509 62.3358 41.4136 64.3816C44.4921 67.1709 47.5477 69.9806 51.2021 72.0313C53.2398 72.1499 54.9527 72.8043 55.7675 74.8745L55.6872 74.946C60.0111 80.2548 56.7325 85.0123 55.6203 89.7327C51.5237 90.2338 50.8695 86.9005 48.6394 85.9767L48.6388 85.9876Z" fill="url(#paint6_radial_40_2)"/>
<path d="M55.7666 74.8854C53.8129 74.6303 52.6873 73.0422 51.2012 72.0421C53.2223 70.0173 55.5987 71.4172 57.8211 71.3508C57.1326 72.5288 56.455 73.7074 55.7666 74.8854Z" fill="#282321"/>
<path d="M61.9871 88.3416C61.5287 87.2492 61.0588 86.1669 60.6004 85.0744C63.7799 84.0741 62.7123 79.4333 67.1209 78.2435C65.3509 82.1209 67.4896 86.8566 61.9871 88.3416Z" fill="url(#paint7_radial_40_2)"/>
</g>
<defs>
<filter id="filter0_i_40_2" x="5" y="12" width="172" height="172" filterUnits="userSpaceOnUse" color-interpolation-filters="sRGB">
<feFlood flood-opacity="0" result="BackgroundImageFix"/>
<feBlend mode="normal" in="SourceGraphic" in2="BackgroundImageFix" result="shape"/>
<feColorMatrix in="SourceAlpha" type="matrix" values="0 0 0 0 0 0 0 0 0 0 0 0 0 0 0 0 0 0 127 0" result="hardAlpha"/>
<feOffset/>
<feGaussianBlur stdDeviation="1.5"/>
<feComposite in2="hardAlpha" operator="arithmetic" k2="-1" k3="1"/>
<feColorMatrix type="matrix" values="0 0 0 0 0.968627 0 0 0 0 0.823529 0 0 0 0 0.00784314 0 0 0 0.7 0"/>
<feBlend mode="normal" in2="shape" result="effect1_innerShadow_40_2"/>
</filter>
<filter id="filter1_i_40_2" x="6.1178" y="146.979" width="169.677" height="57.6872" filterUnits="userSpaceOnUse" color-interpolation-filters="sRGB">
<feFlood flood-opacity="0" result="BackgroundImageFix"/>
<feBlend mode="normal" in="SourceGraphic" in2="BackgroundImageFix" result="shape"/>
<feColorMatrix in="SourceAlpha" type="matrix" values="0 0 0 0 0 0 0 0 0 0 0 0 0 0 0 0 0 0 127 0" result="hardAlpha"/>
<feOffset dy="3.79751"/>
<feGaussianBlur stdDeviation="1.89875"/>
<feComposite in2="hardAlpha" operator="arithmetic" k2="-1" k3="1"/>
<feColorMatrix type="matrix" values="0 0 0 0 0.968627 0 0 0 0 0.823529 0 0 0 0 0.00784314 0 0 0 0.6 0"/>
<feBlend mode="normal" in2="shape" result="effect1_innerShadow_40_2"/>
</filter>
<filter id="filter2_i_40_2" x="17.0189" y="5.01697" width="147.376" height="176.818" filterUnits="userSpaceOnUse" color-interpolation-filters="sRGB">
<feFlood flood-opacity="0" result="BackgroundImageFix"/>
<feBlend mode="normal" in="SourceGraphic" in2="BackgroundImageFix" result="shape"/>
<feColorMatrix in="SourceAlpha" type="matrix" values="0 0 0 0 0 0 0 0 0 0 0 0 0 0 0 0 0 0 127 0" result="hardAlpha"/>
<feOffset dy="4"/>
<feGaussianBlur stdDeviation="2"/>
<feComposite in2="hardAlpha" operator="arithmetic" k2="-1" k3="1"/>
<feColorMatrix type="matrix" values="0 0 0 0 0.968627 0 0 0 0 0.823529 0 0 0 0 0.00784314 0 0 0 0.3 0"/>
<feBlend mode="normal" in2="shape" result="effect1_innerShadow_40_2"/>
</filter>
<radialGradient id="paint0_radial_40_2" cx="0" cy="0" r="1" gradientUnits="userSpaceOnUse" gradientTransform="translate(110.832 83.6479) rotate(93.3315) scale(92.9915 133.68)">
<stop stop-color="#F7D202"/>
<stop offset="0.495" stop-color="#877301"/>
<stop offset="1" stop-color="#231F1F"/>
</radialGradient>
<radialGradient id="paint1_radial_40_2" cx="0" cy="0" r="1" gradientUnits="userSpaceOnUse" gradientTransform="translate(66.1116 65.5197) rotate(93.3315) scale(48.1789 132.739)">
<stop stop-color="#F7D202"/>
<stop offset="0.495" stop-color="#877301"/>
<stop offset="1" stop-color="#231F1F"/>
</radialGradient>
<radialGradient id="paint2_radial_40_2" cx="0" cy="0" r="1" gradientUnits="userSpaceOnUse" gradientTransform="translate(87.5554 125.571) rotate(93.3315) scale(26.3571 62.48)">
<stop stop-color="#F7D202"/>
<stop offset="0.495" stop-color="#877301"/>
<stop offset="1" stop-color="#231F1F"/>
</radialGradient>
<radialGradient id="paint3_radial_40_2" cx="0" cy="0" r="1" gradientUnits="userSpaceOnUse" gradientTransform="translate(84.4055 26.9563) rotate(93.3315) scale(44.0669 78.6196)">
<stop stop-color="#F7D202"/>
<stop offset="0.495" stop-color="#877301"/>
<stop offset="1" stop-color="#231F1F"/>
</radialGradient>
<radialGradient id="paint4_radial_40_2" cx="0" cy="0" r="1" gradientUnits="userSpaceOnUse" gradientTransform="translate(100.698 26.8449) rotate(93.3315) scale(8.88999 17.2024)">
<stop stop-color="#F7D202"/>
<stop offset="0.495" stop-color="#877301"/>
<stop offset="1" stop-color="#231F1F"/>
</radialGradient>
<radialGradient id="paint5_radial_40_2" cx="0" cy="0" r="1" gradientUnits="userSpaceOnUse" gradientTransform="translate(155.648 113.03) rotate(93.3315) scale(16.1143 37.9921)">
<stop stop-color="#F7D202"/>
<stop offset="0.495" stop-color="#877301"/>
<stop offset="1" stop-color="#231F1F"/>
</radialGradient>
<radialGradient id="paint6_radial_40_2" cx="0" cy="0" r="1" gradientUnits="userSpaceOnUse" gradientTransform="translate(38.3508 60.8421) rotate(93.3315) scale(27.9454 84.8219)">
<stop stop-color="#F7D202"/>
<stop offset="0.495" stop-color="#877301"/>
<stop offset="1" stop-color="#231F1F"/>
</radialGradient>
<radialGradient id="paint7_radial_40_2" cx="0" cy="0" r="1" gradientUnits="userSpaceOnUse" gradientTransform="translate(64.1143 77.4094) rotate(93.3315) scale(11.0374 12.5306)">
<stop stop-color="#F7D202"/>
<stop offset="0.495" stop-color="#877301"/>
<stop offset="1" stop-color="#231F1F"/>
</radialGradient>
</defs>
</svg>
